<svg width="146" height="142" viewBox="0 0 146 142" fill="none" xmlns="http://www.w3.org/2000/svg">
<path d="M8.25217 55.17L0 51.4084L73 15.6733L146 51.4084L137.113 55.17L73 24.1369L8.25217 55.17Z" fill="#B8B8B8"/>
<path d="M36.8174 26.3311V17.2406L72.6826 0L108.865 17.2406V26.3311L72.6826 8.77704L36.8174 26.3311Z" fill="#79979E"/>
<path d="M36.8174 57.6777V48.5872L72.6826 31.3466L108.865 48.5872V57.6777L72.6826 40.1236L36.8174 57.6777Z" fill="#79979E"/>
<path d="M36.8174 42.0044V32.9139L72.6826 15.6733L108.865 32.9139V42.0044L72.6826 24.4503L36.8174 42.0044Z" fill="#79979E"/>
<path d="M0 83.0684V73.9779L73 110.34L146 73.9779V83.0684L73 119.43L0 83.0684Z" fill="#B8B8B8"/>
<path d="M0 60.4989V51.4084L73 87.7704L146 51.4084V60.4989L73 96.8609L0 60.4989Z" fill="#B8B8B8"/>
<path d="M0 105.638V96.5475L73 132.909L146 96.5475V105.638L73 142L0 105.638Z" fill="#B8B8B8"/>
</svg>
