<svg id="Слой_1" xmlns="http://www.w3.org/2000/svg" viewBox="0 0 460 398.4"><style>.st0{fill:#fff}</style><path class="st0" d="M235 64.3V8c0-3.3-2.7-6-6-6s-6 2.7-6 6v56.3c2-.1 4-.1 6-.1 2-.1 4 0 6 .1zM223 331.7V388c0 3.3 2.7 6 6 6s6-2.7 6-6v-56.3c-2 .1-4 .1-6 .1s-4 0-6-.1zM419 192h-56.3c.1 2 .1 4 .1 6s-.1 4-.1 6H419c3.3 0 6-2.7 6-6s-2.7-6-6-6zM95.3 192H39c-3.3 0-6 2.7-6 6s2.7 6 6 6h56.3c-.1-2-.1-4-.1-6s0-4 .1-6z"/><circle class="st0" cx="229" cy="198" r="58.2"/><path class="st0" d="M308.5 198c0-3.3 2.7-6 6-6h48.2C359.5 122.8 304.2 67.5 235 64.3v48.2c0 3.3-2.7 6-6 6s-6-2.7-6-6V64.3C153.8 67.5 98.5 122.8 95.3 192h48.2c3.3 0 6 2.7 6 6s-2.7 6-6 6H95.3c3.2 69.2 58.6 124.5 127.7 127.7v-48.2c0-3.3 2.7-6 6-6s6 2.7 6 6v48.2c69.2-3.2 124.5-58.6 127.7-127.7h-48.2c-3.3 0-6-2.7-6-6zM229 268.2c-38.8 0-70.2-31.4-70.2-70.2s31.4-70.2 70.2-70.2 70.2 31.4 70.2 70.2c0 38.8-31.4 70.2-70.2 70.2z"/></svg>