<svg xmlns="http://www.w3.org/2000/svg" viewBox="0 0 64 64"><path d="M0 23.6C0 15.8 6.4 9.4 14.2 9.4c7.6 0 13.6 5.9 14.2 14.1 1 13.9-6 25.3-12.3 30.8-.4.3-1 .3-1.3 0-.6-.5-.9-.9-1.8-1.8-.6-.7-1.6-1.6-3-3.1-.3-.3-.4-.9-.1-1.3 3.6-5.3 3.7-9 3.6-10.4C5.9 37.4 0 31.2 0 23.6zM35.5 23.6c0-7.8 6.4-14.2 14.2-14.2 3.8 0 7.2 1.5 9.7 4 2.5 2.5 4.2 6 4.5 10.1 1 13.9-6 25.3-12.3 30.8-.4.3-1 .3-1.3 0-.6-.5-1-.9-1.8-1.8-.6-.7-1.6-1.6-3-3.1-.3-.3-.4-.9-.1-1.3C49 42.8 49.1 39 49 37.7c-7.6-.3-13.5-6.5-13.5-14.1z"/></svg>